Coordinates
version=1
nRows=18
nColumns=22
inDegrees=yes

Units are S.I. units (second, meters, Newtons, ...)
If the header above contains a line with 'inDegrees', this indicates whether rotational values are in degrees (yes) or radians (no).

endheader
time	pelvis_tilt	pelvis_list	pelvis_rotation	pelvis_tx	pelvis_ty	pelvis_tz	hip_flexion_r	hip_adduction_r	hip_rotation_r	knee_angle_r	ankle_angle_r	subtalar_angle_r	hip_flexion_l	hip_adduction_l	hip_rotation_l	knee_angle_l	ankle_angle_l	subtalar_angle_l	lumbar_extension	lumbar_bending	lumbar_rotation
      4.06000000	     -6.26207672	     -3.82589446	    -87.26565235	      0.52517708	      0.94016149	      0.84486040	     -0.37855667	     11.04643920	     -2.60027402	     -6.55793129	      3.89755365	     -5.09937204	     21.07837451	    -10.83304310	      1.88764843	    -46.67637224	     10.41323933	      3.75693879	    -13.18798290	      6.20694133	      2.09852378
      4.07000000	     -6.18140797	     -3.81495075	    -87.33917090	      0.52585104	      0.94029154	      0.84725814	     -0.39088481	     10.91203183	     -2.55879875	     -6.84270197	      4.13912903	     -5.08844607	     20.89192076	    -10.70933292	      1.65809459	    -45.64651486	     10.61717726	      3.89699984	    -13.14741526	      6.06300379	      2.24228159
      4.08000000	     -6.10476565	     -3.81611462	    -87.40706734	      0.52656765	      0.94042118	      0.84964183	     -0.41288887	     10.78053794	     -2.50054370	     -7.13214698	      4.38909907	     -5.07442012	     20.65377969	    -10.58111368	      1.44115380	    -44.68162432	     10.69942035	      4.03118441	    -13.11085406	      5.92086442	      2.38639197
      4.09000000	     -6.03775877	     -3.82083016	    -87.46706249	      0.52732110	      0.94053168	      0.85202937	     -0.44353322	     10.65807067	     -2.44313057	     -7.41200511	      4.64259554	     -5.05747733	     20.37590184	    -10.45604152	      1.23399593	    -43.78156740	     10.65953107	      4.15392496	    -13.06396845	      5.78594719	      2.51015666
      4.10000000	     -5.98535964	     -3.82701177	    -87.51747906	      0.52810135	      0.94061218	      0.85442102	     -0.48188197	     10.55099341	     -2.39023789	     -7.67805730	      4.89513736	     -5.03716125	     20.06247122	    -10.33576844	      1.05155886	    -42.94447202	     10.50017021	      4.25336528	    -13.00584770	      5.66160002	      2.60675015
      4.11000000	     -5.94309205	     -3.82952736	    -87.55963430	      0.52893830	      0.94065468	      0.85681419	     -0.51621959	     10.45124165	     -2.34940843	     -7.94178326	      5.13991961	     -5.01192359	     19.71714953	    -10.20985101	      0.90013741	    -42.16430962	     10.24333461	      4.30255004	    -12.92884094	      5.54936272	      2.68210490
      4.12000000	     -5.91519089	     -3.83111691	    -87.59280081	      0.52982121	      0.94066389	      0.85921658	     -0.55370177	     10.36470423	     -2.31869584	     -8.19662373	      5.38547113	     -4.97819843	     19.33824512	    -10.08562962	      0.77946015	    -41.43454963	      9.91439560	      4.28156935	    -12.83702144	      5.45100702	      2.73138887
      4.13000000	     -5.89830580	     -3.83235725	    -87.61918853	      0.53074588	      0.94064433	      0.86162921	     -0.59406386	     10.28708059	     -2.29800433	     -8.44527897	      5.63390854	     -4.93187074	     18.92103915	     -9.96485630	      0.67819946	    -40.73981817	      9.55989096	      4.16981040	    -12.73316381	      5.36005835	      2.75484937
      4.14000000	     -5.88855340	     -3.83448261	    -87.63955528	      0.53171849	      0.94060544	      0.86405272	     -0.63866872	     10.21406219	     -2.28517028	     -8.68824804	      5.88782442	     -4.86733661	     18.46592550	     -9.84972747	      0.57500530	    -40.07281569	      9.23930121	      3.94025830	    -12.61855795	      5.27373404	      2.75341177
      4.15000000	     -5.89659614	     -3.85862658	    -87.65264160	      0.53273451	      0.94057762	      0.86648375	     -0.71584234	     10.16031428	     -2.25228529	     -8.91562218	      6.13872341	     -4.76118507	     17.95557840	     -9.75801418	      0.45931916	    -39.42972781	      9.06108972	      3.47426282	    -12.52068851	      5.20660599	      2.71129330
      4.16000000	     -5.91664519	     -3.83212900	    -87.65914217	      0.53378912	      0.94045642	      0.86889664	     -0.73007907	     10.11379468	     -2.24257778	     -9.15120293	      6.38874074	     -4.65931291	     17.48442753	     -9.68609301	      0.31384444	    -38.81668961	      8.94537395	      3.00367768	    -12.35484296	      5.14880363	      2.66632258
      4.17000000	     -5.93411365	     -3.78898328	    -87.66429286	      0.53487354	      0.94031229	      0.87129520	     -0.71731718	     10.06101736	     -2.24069716	     -9.40161611	      6.64164287	     -4.54980391	     17.00413095	     -9.62294114	      0.12027378	    -38.20514834	      8.97814656	      2.53906315	    -12.16534208	      5.08520600	      2.60551304
      4.18000000	     -5.95301252	     -3.72906222	    -87.66090811	      0.53597585	      0.94014299	      0.87368047	     -0.68548988	     10.00893849	     -2.24184208	     -9.65036555	      6.89413644	     -4.42867674	     16.52096673	     -9.57202414	     -0.11745334	    -37.58722920	      9.17840940	      2.08586131	    -11.95167742	      5.01612577	      2.51563866
      4.19000000	     -5.96564112	     -3.65037925	    -87.63976665	      0.53713562	      0.93996906	      0.87606471	     -0.64992486	      9.94799799	     -2.25494134	     -9.86314848	      7.09937185	     -4.28392285	     16.04013062	     -9.51550166	     -0.38919533	    -36.94961636	      9.50293945	      1.56427013	    -11.70817860	      4.94167173	      2.40675569
      4.20000000	     -5.96030639	     -3.55238298	    -87.61505825	      0.53830233	      0.93977622	      0.87839863	     -0.57246107	      9.86718927	     -2.26360518	    -10.11402946	      7.38717984	     -4.16021560	     15.56935133	     -9.44648984	     -0.70419516	    -36.29485496	      9.86398169	      1.23170034	    -11.44663727	      4.84133096	      2.26867534
      4.21000000	     -5.94706206	     -3.42516775	    -87.57344303	      0.53951259	      0.93957472	      0.88072326	     -0.47075865	      9.77540697	     -2.28830091	    -10.34709492	      7.63562233	     -4.06049437	     15.11134115	     -9.35549379	     -0.99516015	    -35.59837033	     10.30359512	      1.00252211	    -11.14551790	      4.72984877	      2.14005105
      4.22000000	     -5.88998386	     -3.30144600	    -87.51244734	      0.54075336	      0.93942774	      0.88304029	     -0.38760034	      9.63797760	     -2.31454963	    -10.55559692	      7.89114516	     -3.92418585	     14.64784647	     -9.22670276	     -1.35173790	    -34.88634223	     10.70370792	      0.63182877	    -10.84935777	      4.56510583	      1.93764995
      4.23000000	     -5.82123713	     -3.14968095	    -87.42766321	      0.54203486	      0.93928304	      0.88533825	     -0.28060285	      9.48775121	     -2.35940273	    -10.74745578	      8.12264030	     -3.82724391	     14.21026720	     -9.06309432	     -1.63830695	    -34.14749636	     11.12514307	      0.37271879	    -10.51783021	      4.38386660	      1.74388249
